# xmcd
#
# Track frame offsets: 
#        150
#        19899
#        35501
#        49311
#        76007
#        92324
#        111035
#        127543
#        145165
#        170652
#        188272
#
# Disc length: 2800 seconds
#
# Revision: 1
# Processed by: cddbd v1.5.2PL0 Copyright (c) Steve Scherf et al.
# Submitted via: ExactAudioCopy v1.0b4
#
DISCID=790aee0b
DTITLE=The Special 20's - The Special 20's 
DYEAR=2007
DGENRE=Blues
TTITLE0=Hot Little Mama
TTITLE1=Looking Out For Number One
TTITLE2=Glad I Don't Worry No More
TTITLE3=Merry Christmas Baby
TTITLE4=Sugar Sweet
TTITLE5=Ready When You Are
TTITLE6=Rock This House
TTITLE7=That's The Truth
TTITLE8=Champagne and Reefer
TTITLE9=Honey Dew
TTITLE10=Let The Good Times Roll
EXTD=
EXTT0=
EXTT1=
EXTT2=
EXTT3=
EXTT4=
EXTT5=
EXTT6=
EXTT7=
EXTT8=
EXTT9=
EXTT10=
PLAYORDER=
